<svg id="Livello_1" data-name="Livello 1" xmlns="http://www.w3.org/2000/svg" viewBox="0 0 296.49 269.47"><defs><style>.cls-1{font-size:41.72px;font-family:Poppins-Bold, Poppins;font-weight:700;}.cls-1,.cls-3{fill:#fff;}.cls-2{font-family:Poppins-Regular, Poppins;font-weight:400;}</style></defs><text class="cls-1" transform="translate(36.57 185.05)">sebastiano<tspan class="cls-2"><tspan x="0" y="50.06" xml:space="preserve">   moniaci</tspan></tspan></text><path class="cls-3" d="M274.51,71.63,260,70.82c-1,0-1.55-1.63-1.83-3.1-.78-4-10.92-37.68-44.39-39.55-29-1.61-39,16.36-41,17.25s-1.52.42-4-.22-6.39-2.36-10.38-2.59c-4.49-.24-11.68,2.86-12.66,2.31s-1.44-1.08-3.32-3.2C141.21,40.38,131,23.55,104,22.05S63.26,41.82,60.48,46.68s-10.21,12.45-23.7,11.7l-.4,7.27s-.1,1.72,2.4,1.86l12.49.69a2.9,2.9,0,0,1,2.83,3.17c-.09,1.5,3.34,47.78,47.38,48.73,32.07.7,43.87-23.1,44.45-24.58s-1.33-3.07-3.27-4.19-3.39-2.19-5,.23S121.76,115.72,98,110.89s-37.34-22.12-34.56-45S85.9,31.06,104.94,31.12,137.51,49,138.81,52.54s2.25,4.64,3.27,4.2,10.25-5.41,15.79-4.63c6,.83,8.44,1.47,7.82,3.44s-5.81,13.11-4.9,23.28c1,11.07,10.05,46.13,46.55,47.24,33.53,1,45.47-24.58,50.07-35.35,3.81-8.88,19.09-10,19.09-10s.29-5.19.38-6.59A2.35,2.35,0,0,0,274.51,71.63Zm-24,7.69a40.26,40.26,0,1,1-38-42.2A40.14,40.14,0,0,1,250.53,79.32Z"/><path class="cls-3" d="M210.09,112.71a35.46,35.46,0,0,1,0-70.92"/><path class="cls-3" d="M102.66,106.45a35.46,35.46,0,0,1,0-70.92"/></svg>