<svg id="Livello_1" data-name="Livello 1" xmlns="http://www.w3.org/2000/svg" viewBox="0 0 296.49 129.47"><defs><style>.cls-1{fill:#fff;}</style></defs><path class="cls-1" d="M266.13,58.33l-14.49-.81c-1-.05-1.54-1.63-1.82-3.1-.78-4.05-10.92-37.68-44.39-39.55-29-1.61-39,16.36-41,17.25s-1.53.42-4-.22S154,29.54,150,29.31c-4.49-.24-11.68,2.86-12.65,2.31s-1.44-1.08-3.33-3.2c-1.2-1.34-11.46-18.17-38.46-19.67S54.88,28.52,52.1,33.38,41.88,45.83,28.4,45.08L28,52.35s-.1,1.72,2.39,1.86l12.49.69a2.89,2.89,0,0,1,2.83,3.17c-.08,1.5,3.35,47.78,47.39,48.73,32.07.7,43.87-23.1,44.44-24.58s-1.33-3.07-3.26-4.18-3.39-2.2-5,.22S113.37,102.42,89.6,97.59,52.25,75.47,55,52.58,77.52,17.76,96.55,17.82s32.57,17.85,33.87,21.42,2.26,4.64,3.28,4.2S144,38,149.48,38.81c6,.83,8.44,1.47,7.83,3.44s-5.81,13.11-4.9,23.29c1,11.06,10.05,46.13,46.55,47.23,33.53,1,45.47-24.58,50.07-35.35,3.81-8.88,19.09-10,19.09-10s.29-5.19.37-6.58A2.34,2.34,0,0,0,266.13,58.33Zm-24,7.69a40.27,40.27,0,1,1-38-42.2A40.13,40.13,0,0,1,242.15,66Z"/><path class="cls-1" d="M201.71,99.41a35.46,35.46,0,1,1,0-70.92"/><path class="cls-1" d="M94.28,93.15a35.46,35.46,0,1,1,0-70.92"/></svg>